<svg width="109" height="36" viewBox="0 0 109 36" fill="none" xmlns="http://www.w3.org/2000/svg">
<path d="M64.3284 5.90869C61.2324 5.90869 58.7026 8.43981 58.7026 11.5435C58.7026 14.6445 61.2296 17.1784 64.3284 17.1784C67.4272 17.1784 69.9211 14.6473 69.9211 11.5435C69.9211 8.43981 67.4272 5.90869 64.3284 5.90869ZM64.3284 14.6113C62.6216 14.6113 61.2628 13.2199 61.2628 11.5408C61.2628 9.86443 62.6216 8.50344 64.3284 8.50344C66.0021 8.50344 67.3609 9.86443 67.3609 11.5408C67.3636 13.2199 66.0048 14.6113 64.3284 14.6113Z" fill="white"/>
<path d="M43.7335 5.78149C42.5017 5.78149 41.2368 6.036 40.226 6.4454C39.4029 5.96961 38.6131 5.78149 37.4752 5.78149C36.0528 5.78149 34.6001 5.97237 33.0204 6.50902L32.7359 6.60308V16.9516H35.5474V8.4703C36.1164 8.27943 36.5583 8.21581 37.1272 8.21581C38.5164 8.21581 38.9279 8.6584 38.9279 10.1135V16.9488H41.7726V9.92258C41.7726 9.28911 41.7422 8.87693 41.6455 8.49795C42.2145 8.30708 42.6564 8.21304 43.1618 8.21304C44.4902 8.21304 45.0895 8.81331 45.0895 10.1107V16.9461H47.9011V9.88939C47.9011 8.49796 47.6801 7.67361 47.0477 6.97652C46.3544 6.2241 45.1862 5.78149 43.7335 5.78149Z" fill="white"/>
<path d="M55.0045 14.722C53.132 14.722 52.0576 13.5574 52.0576 11.5215C52.0576 9.43848 53.1458 8.24346 55.0349 8.24346C55.427 8.24346 55.7585 8.28495 56.0733 8.37901C56.0733 8.37901 56.6533 8.54498 57.1642 8.94608L58.3546 6.90184C57.7055 6.35965 56.9405 6.12728 56.6837 6.06089C55.9546 5.83959 54.883 5.8064 54.883 5.8064C51.5025 5.8064 49.2323 8.15494 49.2323 11.6459C49.2323 15.0042 51.3837 17.1729 54.72 17.1729C54.72 17.1729 56.9543 17.2725 58.454 15.8783L57.0538 14.0775C56.297 14.5616 55.7695 14.722 55.0045 14.722Z" fill="white"/>
<path d="M18.3413 5.8783C14.3283 5.8783 12.4641 7.65145 12.4641 11.4163V16.9544H15.3392V11.6376V11.3831C15.3392 9.48548 16.4135 8.3126 18.0872 8.3126C18.7832 8.3126 19.319 8.43984 19.6973 8.53389L20.3602 6.03321C19.2499 5.87553 18.3413 5.8783 18.3413 5.8783Z" fill="white"/>
<path d="M31.0926 11.0982V16.9544H27.2371C24.583 16.9544 23.4147 16.7635 22.0228 15.8479C20.8214 15.0235 20.1586 13.4745 20.1586 11.4496C20.1586 8.66395 21.9924 5.8479 26.0357 5.8479C29.3223 5.84514 31.0926 7.68192 31.0926 11.0982ZM28.2811 11.4164C28.2811 9.29464 27.4581 8.25178 25.8175 8.25178C24.1439 8.25178 23.0695 9.48551 23.0695 11.3527C23.0695 13.5989 24.1439 14.5809 26.5467 14.5809H28.2838V11.4164H28.2811Z" fill="white"/>
<path d="M10.9009 11.0982V16.9544H7.07855C4.42444 16.9544 3.25619 16.7635 1.86423 15.8479C0.662838 15.0235 0 13.4745 0 11.4496C0 8.66395 1.83385 5.8479 5.87716 5.8479C9.16373 5.84514 10.9009 7.68192 10.9009 11.0982ZM7.99272 11.4164C7.99272 9.26421 7.23322 8.25178 5.55955 8.25178C3.88589 8.25178 2.81154 9.48551 2.81154 11.3527C2.81154 13.5989 3.88589 14.5809 6.28867 14.5809H7.99548V11.4164H7.99272Z" fill="white"/>
<path d="M108.46 0H75.9032V32.6086H108.46V0Z" fill="url(#paint0_radial_23_5029)"/>
<defs>
<radialGradient id="paint0_radial_23_5029" cx="0" cy="0" r="1" gradientUnits="userSpaceOnUse" gradientTransform="translate(61.2996 41.4629) scale(62.7533 62.8539)">
<stop offset="0.29" stop-color="#84BA26"/>
<stop offset="0.44" stop-color="#61AF30"/>
<stop offset="0.685" stop-color="#00903A"/>
<stop offset="0.705" stop-color="#155AA6"/>
<stop offset="0.9" stop-color="#2BA2DC"/>
<stop offset="1" stop-color="#35A9E1"/>
</radialGradient>
</defs>
</svg>
